HIERARCHY
ROOT pelvis
{
  OFFSET 0 100 0
  CHANNELS 6 Xposition Yposition Zposition Zrotation Xrotation Yrotation
  JOINT pelvis_right_femur
  {
    OFFSET -10.78128 -3.44521 -0.5502486
    CHANNELS 3 Zrotation Xrotation Yrotation
    JOINT right_femur_tibia
    {
      OFFSET -0.8047443 -44.0398 -0.1307829
      CHANNELS 3 Zrotation Xrotation Yrotation
      JOINT right_tibia_foot
      {
        OFFSET 3.006224 -47.83518 -5
        CHANNELS 3 Zrotation Xrotation Yrotation
        End Site
        {
          OFFSET 0 -5 15
        }
      }
    }
  }
  JOINT pelvis_left_femur
  {
    OFFSET 10.78128 -3.44521 -0.5502486
    CHANNELS 3 Zrotation Xrotation Yrotation
    JOINT left_femur_tibia
    {
      OFFSET 0.8047443 -44.0398 -0.1307829
      CHANNELS 3 Zrotation Xrotation Yrotation
      JOINT left_tibia_foot
      {
        OFFSET -4.370144 -48.10324 -4.275266
        CHANNELS 3 Zrotation Xrotation Yrotation
        End Site
        {
          OFFSET 0 -5 15
        }
      }
    }
  }
  JOINT pelvis_spine1
  {
    OFFSET 0 6.468898 -3.129235
    CHANNELS 3 Zrotation Xrotation Yrotation
    JOINT spine1
    {
      OFFSET 0 23.15396 4.99043
      CHANNELS 3 Zrotation Xrotation Yrotation
      JOINT spine2
      {
        OFFSET 0 20.79997 -5.064912
        CHANNELS 3 Zrotation Xrotation Yrotation
        JOINT neck
        {
          OFFSET 0 14.38658 9.616178
          CHANNELS 3 Zrotation Xrotation Yrotation
          End Site
          {
            OFFSET 0 20 0
          }
        }
      }
      JOINT right_manubrium
      {
        OFFSET -5.722621 16.35077 3.967754
        CHANNELS 3 Zrotation Xrotation Yrotation
        JOINT right_clavicle
        {
          OFFSET -13.16364 1.694482 -4.693211
          CHANNELS 3 Zrotation Xrotation Yrotation
          JOINT right_humerus
          {
            OFFSET -28.5034 -0.3100689 -2.792744
            CHANNELS 3 Zrotation Xrotation Yrotation
            JOINT right_radius
            {
              OFFSET -25.15693 0.02248979 -1.271978
              CHANNELS 3 Zrotation Xrotation Yrotation
              End Site
              {
                OFFSET -15 0 0
              }
            }
          }
        }
      }
      JOINT left_manubrium
      {
        OFFSET 5.722621 16.35077 3.967754
        CHANNELS 3 Zrotation Xrotation Yrotation
        JOINT left_clavicle
        {
          OFFSET 13.16364 1.694482 -4.693211
          CHANNELS 3 Zrotation Xrotation Yrotation
          JOINT left_humerus
          {
            OFFSET 29.39168 -1.063119 -2.237045
            CHANNELS 3 Zrotation Xrotation Yrotation
            JOINT left_radius
            {
              OFFSET 24.59957 -0.9528479 0.9047498
              CHANNELS 3 Zrotation Xrotation Yrotation
              End Site
              {
                OFFSET 15 -0 -0
              }
            }
          }
        }
      }
    }
  }
}
MOTION
Frames: 23
Frame Time: 0.0416666666667
-243.436 87.61247 2881.322 -0.3993472 -1.209404 -14.19958 4.531897 -26.80183 -5.393135 -0 2.548595 -0 -8.461478 9.013381 -0.2246549 -5.068045 15.73331 -7.938422 -0 26.78895 -0 -3.050577 -17.10795 9.227201 -0.9040152 -0.3581048 8.803546 -1.064253 7.772383 -1.169821 1.978204 21.80687 2.698437 -1.084484 -21.26433 6.691412 -6.171024 -29.57905 8.052976 84.31361 19.92657 2.458612 -0 0 30.57057 -21.77531 6.196186 17.65101 3.507765 -11.90937 -1.119898 -100.683 19.71701 39.65927 0 0 -1.519444 -3.420779 6.243397 17.62569
-245.3619 87.78011 2887.771 -1.320564 -1.263795 -14.14575 6.325586 -23.75209 -3.543402 -0 7.076616 -0 -9.190801 7.251713 -1.171312 -4.230581 14.09214 -7.593193 -0 36.77634 -0 -4.267752 -12.98249 8.707692 -0.9024188 -0.3655242 8.812843 -1.064667 7.770185 -1.167539 1.975004 21.79364 2.694502 -1.090335 -21.26882 6.687986 -6.178454 -29.60751 8.049455 84.29881 19.92863 2.489918 -0 0 30.62082 -21.78278 6.207661 17.66947 3.506461 -11.90025 -1.113851 -100.6926 19.69545 39.70126 0 0 -1.518353 -3.428672 6.23392 17.63218
-247.2683 88.57536 2894.017 -2.131552 -1.825825 -14.42213 7.458072 -19.43488 -1.757986 -0 11.11696 -0 -9.91658 4.036447 -2.081436 -3.449205 10.46295 -7.509211 -0 47.28293 -0 -5.135276 -8.891513 8.821148 -0.9013454 -0.3738168 8.824578 -1.06517 7.765045 -1.163717 1.971181 21.77883 2.68996 -1.097347 -21.27304 6.683965 -6.187069 -29.64021 8.044721 84.27795 19.93068 2.530273 -0 0 30.6823 -21.79111 6.218218 17.69114 3.505411 -11.88655 -1.104987 -100.7061 19.67201 39.75117 0 0 -1.513617 -3.440211 6.220621 17.64123
-249.0543 89.76846 2899.879 -2.446431 -2.681058 -15.00679 7.646007 -14.3225 -0.3837904 -0 13.07239 -0 -10.34152 0.1119993 -2.672935 -2.96272 4.90467 -7.443158 -0 56.31246 -0 -5.291487 -5.891151 9.469791 -0.9008777 -0.3826476 8.838347 -1.065741 7.757012 -1.158445 1.966874 21.76302 2.684992 -1.105262 -21.2768 6.679504 -6.196547 -29.67586 8.038918 84.25165 19.93262 2.578327 -0 0 30.75278 -21.79995 6.227294 17.71517 3.504685 -11.86867 -1.093551 -100.723 19.64767 39.80712 0 0 -1.50527 -3.455062 6.203887 17.65256
-250.6908 91.06002 2905.339 -2.160829 -3.546892 -15.73055 7.032712 -8.945704 0.510859 -0 12.71736 -0 -10.32394 -3.598935 -2.730446 -2.667589 -1.920328 -7.208588 -0 61.79079 -0 -4.692494 -4.418941 10.41891 -0.9010951 -0.3915376 8.853445 -1.066345 7.746369 -1.151935 1.962308 21.74711 2.679879 -1.113652 -21.27983 6.674845 -6.20635 -29.7125 8.032332 84.22108 19.93432 2.631729 -0 0 30.8286 -21.80884 6.234252 17.74033 3.504358 -11.84739 -1.080061 -100.7425 19.62385 39.8661 0 0 -1.493556 -3.472523 6.184551 17.66558
-252.2011 92.14923 2910.5 -1.50533 -4.178039 -16.39694 6.061831 -3.71417 1.03853 -0 10.97285 -0 -9.931018 -6.553437 -2.222725 -2.169692 -9.050284 -6.694963 -0 62.17586 -0 -3.650353 -4.111414 11.4702 -0.9020525 -0.3998959 8.868907 -1.066941 7.733662 -1.144531 1.957785 21.73224 2.674982 -1.121945 -21.28181 6.670301 -6.215767 -29.74763 8.025389 84.18799 19.9356 2.68721 -0 0 30.90488 -21.81723 6.23846 17.765 3.504498 -11.82394 -1.06531 -100.7636 19.60224 39.9242 0 0 -1.47897 -3.491536 6.163862 17.67944
-253.6096 92.77679 2915.49 -0.8854468 -4.413408 -16.89094 5.255898 1.071725 1.347495 -0 9.033234 -0 -9.355657 -8.806704 -1.334543 -1.0585 -15.58044 -5.743861 -0 56.96418 -0 -2.54487 -4.199554 12.47103 -0.9037557 -0.4071037 8.883632 -1.067488 7.719659 -1.136683 1.953641 21.71959 2.670683 -1.129512 -21.28249 6.666209 -6.224027 -29.77857 8.018597 84.15448 19.93629 2.740978 -0 0 30.97612 -21.82454 6.239427 17.78741 3.505144 -11.79986 -1.050278 -100.7848 19.58459 39.97712 0 0 -1.462251 -3.510814 6.14332 17.69313
-254.9124 92.77408 2920.418 -0.6635948 -4.204015 -17.20434 5.021569 5.121875 1.542871 -0 7.775841 -0 -8.787482 -10.82416 -0.413404 0.8408148 -20.80988 -4.138476 -0 47.00918 -0 -1.526161 -4.054209 13.22769 -0.9061451 -0.4126122 8.896553 -1.06795 7.705267 -1.128891 1.950191 21.71018 2.667324 -1.135765 -21.28169 6.662876 -6.23044 -29.80293 8.012461 84.12278 19.93628 2.789261 -0 0 31.03711 -21.83026 6.23691 17.80592 3.506286 -11.77677 -1.035997 -100.8047 19.57235 40.02087 0 0 -1.444332 -3.529025 6.124435 17.70564
-256.0885 92.12827 2925.391 -1.000012 -3.639569 -17.40321 5.480606 8.167162 1.67656 -0 7.706734 -0 -8.342558 -13.09729 0.158781 3.298037 -24.26664 -1.839201 -0 34.52197 -0 -0.50933 -3.470987 13.51818 -0.9090969 -0.4160155 8.906773 -1.0683 7.691422 -1.121651 1.947686 21.70474 2.665156 -1.140244 -21.27939 6.660541 -6.234492 -29.81888 8.007425 84.09497 19.93553 2.828775 -0 0 31.08357 -21.83399 6.230966 17.81923 3.507868 -11.75619 -1.023423 -100.8221 19.56651 40.05233 0 0 -1.426253 -3.544955 6.108533 17.7161
-257.1305 91.02074 2930.563 -1.766309 -2.930589 -17.58722 6.332787 10.15367 1.754247 -0 9.038558 -0 -8.054009 -15.74634 0.1829048 5.614688 -25.80338 0.6892824 -0 22.56169 -0 0.5663009 -2.641027 13.26145 -0.9124359 -0.4170854 8.913644 -1.068522 7.678996 -1.115407 1.946296 21.70366 2.664318 -1.142653 -21.2757 6.659351 -6.235896 -29.82539 8.003819 84.07278 19.93407 2.857023 -0 0 31.11251 -21.8355 6.221944 17.82647 3.509793 -11.73941 -1.01335 -100.8358 19.56749 40.06948 0 0 -1.409073 -3.557619 6.096633 17.72388
-258.0582 89.78231 2936.152 -2.559315 -2.331691 -17.85897 6.878921 11.47726 1.722544 -0 11.6225 -0 -7.869526 -18.22709 -0.1430365 6.850685 -25.72537 2.451294 -0 13.95677 -0 1.460122 -1.939392 12.73106 -0.9159535 -0.4157811 8.916801 -1.068608 7.668726 -1.110524 1.946091 21.70694 2.664834 -1.14288 -21.27084 6.659359 -6.234599 -29.82218 8.001843 84.05747 19.93202 2.872454 -0 0 31.12245 -21.83471 6.210435 17.82728 3.511933 -11.72737 -1.006348 -100.8451 19.57514 40.07148 0 0 -1.393793 -3.566324 6.089384 17.72856
-258.9126 88.75878 2942.364 -2.886328 -2.069012 -18.28549 6.356015 12.93284 1.495353 -0 14.94875 -0 -7.682581 -19.33035 -0.2710574 6.354068 -24.66011 2.407442 -0 10.07175 -0 1.652518 -1.685048 12.54569 -0.9194267 -0.4122448 8.91618 -1.068559 7.661161 -1.107258 1.947049 21.71422 2.666619 -1.140993 -21.26514 6.660524 -6.23078 -29.80975 8.001553 84.04976 19.92954 2.874537 -0 0 31.11342 -21.83171 6.197211 17.82179 3.514147 -11.72064 -1.002735 -100.8496 19.58878 40.05873 0 0 -1.381282 -3.570701 6.087033 17.73
-259.7532 88.16942 2949.254 -2.486431 -2.321997 -18.84386 4.473553 15.17055 1.098964 -0 18.56896 -0 -7.519746 -17.68615 0.238361 4.169738 -23.09923 0.1541567 -0 10.29953 -0 0.7836978 -2.031124 13.26547 -0.9226375 -0.4067793 8.911998 -1.068383 7.656627 -1.105742 1.949056 21.72487 2.669495 -1.137218 -21.259 6.66272 -6.224816 -29.7893 8.00287 84.04981 19.92681 2.863732 -0 0 31.08684 -21.82674 6.183154 17.81058 3.516291 -11.71937 -1.002564 -100.8492 19.60732 40.03268 0 0 -1.372219 -3.570709 6.08944 17.72831
-260.6505 88.07054 2956.652 -1.540724 -3.188061 -19.38624 1.698407 17.99289 0.7447215 -0 22.69057 -0 -7.720217 -12.65516 1.28072 1.007741 -21.08018 -3.72796 -0 12.76397 -0 -0.8881303 -2.984167 14.9078 -0.9253919 -0.3998022 8.904696 -1.068093 7.655238 -1.105994 1.951933 21.73804 2.673221 -1.131901 -21.25286 6.665762 -6.21722 -29.76251 8.005609 84.05728 19.92405 2.841326 -0 0 31.04525 -21.82017 6.169156 17.79462 3.51823 -11.72338 -1.005663 -100.8441 19.62937 39.99563 0 0 -1.367048 -3.566589 6.096149 17.72379
-261.651 88.43346 2964.22 -0.5451189 -4.577281 -19.68739 -1.009434 20.23392 0.5984003 -0 28.12873 -0 -8.682731 -4.94963 2.42296 -2.132017 -18.3804 -7.963618 -0 15.57336 -0 -2.566586 -4.388946 16.92273 -0.9275361 -0.3917831 8.894854 -1.067708 7.656917 -1.107928 1.955463 21.75282 2.677533 -1.125442 -21.24711 6.669432 -6.20856 -29.73125 8.009518 84.07142 19.92145 2.809142 -0 0 30.99179 -21.81241 6.156031 17.77501 3.519856 -11.73217 -1.011691 -100.8348 19.65345 39.95027 0 0 -1.365979 -3.558784 6.106502 17.71689
-262.744 89.22518 2971.589 0.02972925 -6.180925 -19.58226 -2.745895 20.46256 0.5664623 -0 35.42223 -0 -10.43786 3.628577 3.382317 -4.438207 -14.90971 -11.33662 -0 17.58195 -0 -3.475509 -5.931033 18.63764 -0.9289646 -0.3831902 8.883105 -1.067248 7.661454 -1.111391 1.959423 21.76833 2.682171 -1.118248 -21.2421 6.67351 -6.199386 -29.69742 8.014321 84.09128 19.91916 2.769262 -0 0 30.92982 -21.8039 6.144449 17.75295 3.521087 -11.74511 -1.020208 -100.822 19.67816 39.89941 0 0 -1.368995 -3.547851 6.119749 17.70807
-263.8656 90.40671 2978.476 -0.02784493 -7.620224 -19.0751 -3.11472 17.85442 0.4745765 -0 43.95436 -0 -12.57804 11.0857 4.05909 -5.584564 -10.84549 -13.28164 -0 18.41526 -0 -3.317977 -7.299197 19.65939 -0.9296211 -0.3744667 8.870093 -1.066736 7.668531 -1.116168 1.963599 21.78376 2.686898 -1.110705 -21.23807 6.677782 -6.190199 -29.66281 8.019741 84.11572 19.91729 2.723885 -0 0 30.86266 -21.79508 6.134931 17.72961 3.521872 -11.76144 -1.030714 -100.8064 19.70223 39.84574 0 0 -1.375877 -3.53442 6.135115 17.69784
-264.932 91.87754 2984.721 -0.6483275 -8.633138 -18.3212 -2.348154 12.56423 0.3191053 -0 51.89041 -0 -14.47028 16.04198 4.338057 -5.704994 -6.524681 -13.92734 -0 18.1722 -0 -2.322982 -8.381672 19.94137 -0.9294953 -0.3660322 8.856469 -1.066194 7.677739 -1.121998 1.967782 21.79838 2.691494 -1.103177 -21.23521 6.682045 -6.181441 -29.62906 8.025502 84.14347 19.9159 2.675304 -0 0 30.79363 -21.78638 6.127858 17.70612 3.52219 -11.78029 -1.04266 -100.7888 19.72455 39.79189 0 0 -1.386214 -3.519177 6.151815 17.68672
-265.8778 93.44027 2990.299 -1.569882 -9.135082 -17.52638 -1.032056 5.530692 0.1784778 -0 56.95288 -0 -15.57154 18.05473 4.104388 -5.186684 -2.307306 -13.77253 -0 17.13772 -0 -1.005756 -9.316195 19.64508 -0.9286202 -0.3582844 8.842887 -1.065648 7.688586 -1.128572 1.971775 21.81154 2.695753 -1.096008 -21.23361 6.686099 -6.173501 -29.59774 8.031332 84.1731 19.91505 2.62591 -0 0 30.72602 -21.77823 6.12349 17.68361 3.522042 -11.80071 -1.055446 -100.77 19.74411 39.74037 0 0 -1.399407 -3.502874 6.169054 17.67521
-266.6848 94.82459 2995.288 -2.457608 -9.161605 -16.85615 0.2568516 -2.027937 -0.00318633 -0 57.46298 -0 -15.69558 17.49948 3.423437 -4.464798 1.513306 -13.33005 -0 15.60132 -0 0.1316995 -10.38393 18.98526 -0.9270685 -0.3515851 8.82999 -1.065127 7.700512 -1.135543 1.975394 21.82267 2.699493 -1.089515 -21.23329 6.689757 -6.166704 -29.57027 8.036969 84.20312 19.91472 2.578106 -0 0 30.663 -21.77103 6.121957 17.66317 3.521455 -11.82168 -1.068444 -100.7511 19.76006 39.69357 0 0 -1.4147 -3.486298 6.186044 17.66385
-267.3892 95.75916 2999.838 -3.021828 -8.790501 -16.39575 1.131762 -9.102137 -0.4319079 -0 53.00014 -0 -15.01026 15.24327 2.563646 -3.888922 4.764902 -12.91698 -0 13.79566 -0 0.8027285 -11.84149 18.13091 -0.9249478 -0.3462306 8.818359 -1.064657 7.712926 -1.142559 1.978486 21.83132 2.702561 -1.083968 -21.23421 6.69286 -6.161295 -29.54779 8.042174 84.23204 19.9149 2.534131 -0 0 30.60739 -21.76514 6.123251 17.64571 3.520478 -11.8422 -1.081041 -100.733 19.77177 39.65352 0 0 -1.431235 -3.470226 6.202058 17.65311
-268.0632 96.05049 3004.133 -3.10119 -8.101227 -16.15221 1.43865 -15.12369 -1.305702 -0 44.4037 -0 -13.81786 12.31 1.821931 -3.661117 7.413746 -12.61478 -0 11.9303 -0 0.9770602 -13.78775 17.1713 -0.9223911 -0.3424237 8.808466 -1.06426 7.725248 -1.149284 1.980936 21.83723 2.70485 -1.079565 -21.23621 6.695285 -6.157417 -29.53111 8.04675 84.25852 19.91553 2.495874 -0 0 30.56142 -21.76082 6.127211 17.63194 3.519179 -11.86135 -1.092685 -100.7164 19.77889 39.62174 0 0 -1.448131 -3.455359 6.216472 17.64344
-268.7853 95.6323 3008.374 -2.687843 -7.166602 -16.07528 1.249858 -19.92711 -2.657605 -0 33.31924 -0 -12.38381 9.620847 1.36636 -3.828543 9.539804 -12.34015 -0 10.2598 -0 0.7941496 -16.11245 16.1336 -0.9195446 -0.3402635 8.800651 -1.063952 7.736952 -1.155427 1.982675 21.84029 2.706303 -1.076427 -21.23913 6.696961 -6.155121 -29.52065 8.05055 84.28149 19.91655 2.464756 -0 0 30.52663 -21.7582 6.133545 17.62231 3.517635 -11.87833 -1.102917 -100.7021 19.78136 39.59921 0 0 -1.464553 -3.442284 6.228797 17.63516
